# xmcd CD database file
#
# Track frame offsets:
#	150
#	16255
#	34740
#	51045
#	65588
#	79670
#	97415
#	111233
#	128720
#	142053
#	160254
#	174746
#	193833
#	207976
#
# Disc length: 2982 seconds
#
# Revision: 0
# Processed by: cddbd v1.5.2PL0 Copyright (c) Steve Scherf et al.
# Submitted via: CDex 1.51
#
DISCID=cd0ba40e
DTITLE=Reckless Kelly - Bulletproof
DYEAR=2008
DGENRE=Country
TTITLE0=Ragged As The Road
TTITLE1=You Don't Have To Stay Forever
TTITLE2=Love In Her Eyes
TTITLE3=Passin' Through
TTITLE4=Never Had A Chance
TTITLE5=One False Move
TTITLE6=A Guy Like Me
TTITLE7=American Blood
TTITLE8=How was California?
TTITLE9=Mirage
TTITLE10=Don't Say Goodbye
TTITLE11=God Forsaken Town
TTITLE12=Wandering Eye
TTITLE13=Bulletproof
EXTD=YEAR: 2008
EXTT0=
EXTT1=
EXTT2=
EXTT3=
EXTT4=
EXTT5=
EXTT6=
EXTT7=
EXTT8=
EXTT9=
EXTT10=
EXTT11=
EXTT12=
EXTT13=
PLAYORDER=
